<mxfile host="Electron" modified="2023-08-03T12:41:26.841Z" agent="Mozilla/5.0 (Macintosh; Intel Mac OS X 10_15_7) AppleWebKit/537.36 (KHTML, like Gecko) draw.io/21.6.5 Chrome/114.0.5735.243 Electron/25.3.1 Safari/537.36" etag="UIByUsNINijCTKpKpF4V" version="21.6.5" type="device">
  <diagram name="Page-1" id="PcYXPt7MTayXTYR5ND74">
    <mxGraphModel dx="1004" dy="765" grid="1" gridSize="10" guides="1" tooltips="1" connect="1" arrows="1" fold="1" page="1" pageScale="1" pageWidth="827" pageHeight="1169" math="0" shadow="0">
      <root>
        <mxCell id="0" />
        <mxCell id="1" parent="0" />
        <mxCell id="WaAChLCho1Wd7BCtM6X5-3" style="edgeStyle=orthogonalEdgeStyle;rounded=0;orthogonalLoop=1;jettySize=auto;html=1;" edge="1" parent="1" source="WaAChLCho1Wd7BCtM6X5-1" target="WaAChLCho1Wd7BCtM6X5-2">
          <mxGeometry relative="1" as="geometry" />
        </mxCell>
        <mxCell id="WaAChLCho1Wd7BCtM6X5-1" value="View" style="rounded=1;whiteSpace=wrap;html=1;" vertex="1" parent="1">
          <mxGeometry x="350" y="280" width="120" height="60" as="geometry" />
        </mxCell>
        <mxCell id="WaAChLCho1Wd7BCtM6X5-5" value="" style="edgeStyle=orthogonalEdgeStyle;rounded=0;orthogonalLoop=1;jettySize=auto;html=1;exitX=0.304;exitY=0.969;exitDx=0;exitDy=0;exitPerimeter=0;startArrow=classic;startFill=1;" edge="1" parent="1" source="WaAChLCho1Wd7BCtM6X5-2" target="WaAChLCho1Wd7BCtM6X5-4">
          <mxGeometry relative="1" as="geometry" />
        </mxCell>
        <mxCell id="WaAChLCho1Wd7BCtM6X5-9" style="edgeStyle=orthogonalEdgeStyle;rounded=0;orthogonalLoop=1;jettySize=auto;html=1;exitX=0.75;exitY=1;exitDx=0;exitDy=0;startArrow=classic;startFill=1;" edge="1" parent="1" source="WaAChLCho1Wd7BCtM6X5-2" target="WaAChLCho1Wd7BCtM6X5-8">
          <mxGeometry relative="1" as="geometry" />
        </mxCell>
        <mxCell id="WaAChLCho1Wd7BCtM6X5-2" value="Controler" style="rounded=1;whiteSpace=wrap;html=1;" vertex="1" parent="1">
          <mxGeometry x="350" y="410" width="120" height="60" as="geometry" />
        </mxCell>
        <mxCell id="WaAChLCho1Wd7BCtM6X5-11" style="edgeStyle=orthogonalEdgeStyle;rounded=0;orthogonalLoop=1;jettySize=auto;html=1;exitX=0.25;exitY=0;exitDx=0;exitDy=0;entryX=0;entryY=0.5;entryDx=0;entryDy=0;" edge="1" parent="1" source="WaAChLCho1Wd7BCtM6X5-4" target="WaAChLCho1Wd7BCtM6X5-1">
          <mxGeometry relative="1" as="geometry" />
        </mxCell>
        <mxCell id="WaAChLCho1Wd7BCtM6X5-4" value="Repository" style="whiteSpace=wrap;html=1;rounded=1;" vertex="1" parent="1">
          <mxGeometry x="270" y="555" width="120" height="60" as="geometry" />
        </mxCell>
        <mxCell id="WaAChLCho1Wd7BCtM6X5-8" value="Services" style="whiteSpace=wrap;html=1;rounded=1;" vertex="1" parent="1">
          <mxGeometry x="420" y="555" width="120" height="60" as="geometry" />
        </mxCell>
        <mxCell id="WaAChLCho1Wd7BCtM6X5-12" value="MVC+S" style="text;html=1;strokeColor=none;fillColor=none;align=center;verticalAlign=middle;whiteSpace=wrap;rounded=0;" vertex="1" parent="1">
          <mxGeometry x="170" y="390" width="60" height="30" as="geometry" />
        </mxCell>
        <mxCell id="WaAChLCho1Wd7BCtM6X5-13" style="edgeStyle=orthogonalEdgeStyle;rounded=0;orthogonalLoop=1;jettySize=auto;html=1;startArrow=classic;startFill=1;" edge="1" parent="1" source="WaAChLCho1Wd7BCtM6X5-14" target="WaAChLCho1Wd7BCtM6X5-17">
          <mxGeometry relative="1" as="geometry" />
        </mxCell>
        <mxCell id="WaAChLCho1Wd7BCtM6X5-14" value="View" style="rounded=1;whiteSpace=wrap;html=1;" vertex="1" parent="1">
          <mxGeometry x="330" y="700" width="120" height="60" as="geometry" />
        </mxCell>
        <mxCell id="WaAChLCho1Wd7BCtM6X5-15" value="" style="edgeStyle=orthogonalEdgeStyle;rounded=0;orthogonalLoop=1;jettySize=auto;html=1;exitX=0.304;exitY=0.969;exitDx=0;exitDy=0;exitPerimeter=0;startArrow=classic;startFill=1;" edge="1" parent="1" source="WaAChLCho1Wd7BCtM6X5-17" target="WaAChLCho1Wd7BCtM6X5-19">
          <mxGeometry relative="1" as="geometry" />
        </mxCell>
        <mxCell id="WaAChLCho1Wd7BCtM6X5-16" style="edgeStyle=orthogonalEdgeStyle;rounded=0;orthogonalLoop=1;jettySize=auto;html=1;exitX=0.75;exitY=1;exitDx=0;exitDy=0;startArrow=classic;startFill=1;" edge="1" parent="1" source="WaAChLCho1Wd7BCtM6X5-17" target="WaAChLCho1Wd7BCtM6X5-20">
          <mxGeometry relative="1" as="geometry" />
        </mxCell>
        <mxCell id="WaAChLCho1Wd7BCtM6X5-17" value="ViewModel" style="rounded=1;whiteSpace=wrap;html=1;" vertex="1" parent="1">
          <mxGeometry x="330" y="830" width="120" height="60" as="geometry" />
        </mxCell>
        <mxCell id="WaAChLCho1Wd7BCtM6X5-19" value="Repository" style="whiteSpace=wrap;html=1;rounded=1;" vertex="1" parent="1">
          <mxGeometry x="250" y="990" width="120" height="60" as="geometry" />
        </mxCell>
        <mxCell id="WaAChLCho1Wd7BCtM6X5-20" value="Services" style="whiteSpace=wrap;html=1;rounded=1;" vertex="1" parent="1">
          <mxGeometry x="414" y="990" width="120" height="60" as="geometry" />
        </mxCell>
        <mxCell id="WaAChLCho1Wd7BCtM6X5-21" value="MVVM+S" style="text;html=1;strokeColor=none;fillColor=none;align=center;verticalAlign=middle;whiteSpace=wrap;rounded=0;" vertex="1" parent="1">
          <mxGeometry x="150" y="810" width="60" height="30" as="geometry" />
        </mxCell>
        <mxCell id="WaAChLCho1Wd7BCtM6X5-22" style="edgeStyle=orthogonalEdgeStyle;rounded=0;orthogonalLoop=1;jettySize=auto;html=1;startArrow=block;startFill=1;" edge="1" source="WaAChLCho1Wd7BCtM6X5-23" target="WaAChLCho1Wd7BCtM6X5-26" parent="1">
          <mxGeometry relative="1" as="geometry" />
        </mxCell>
        <mxCell id="WaAChLCho1Wd7BCtM6X5-23" value="View" style="rounded=1;whiteSpace=wrap;html=1;" vertex="1" parent="1">
          <mxGeometry x="820" y="700" width="120" height="60" as="geometry" />
        </mxCell>
        <mxCell id="WaAChLCho1Wd7BCtM6X5-30" style="edgeStyle=orthogonalEdgeStyle;rounded=0;orthogonalLoop=1;jettySize=auto;html=1;exitX=0.5;exitY=1;exitDx=0;exitDy=0;entryX=0.5;entryY=0;entryDx=0;entryDy=0;startArrow=classic;startFill=1;" edge="1" parent="1" source="WaAChLCho1Wd7BCtM6X5-26" target="WaAChLCho1Wd7BCtM6X5-27">
          <mxGeometry relative="1" as="geometry">
            <mxPoint x="879.8461538461538" y="880" as="targetPoint" />
          </mxGeometry>
        </mxCell>
        <mxCell id="WaAChLCho1Wd7BCtM6X5-26" value="ViewModel" style="rounded=1;whiteSpace=wrap;html=1;" vertex="1" parent="1">
          <mxGeometry x="820" y="810" width="120" height="60" as="geometry" />
        </mxCell>
        <mxCell id="WaAChLCho1Wd7BCtM6X5-32" style="edgeStyle=orthogonalEdgeStyle;rounded=0;orthogonalLoop=1;jettySize=auto;html=1;exitX=0.31;exitY=1.004;exitDx=0;exitDy=0;exitPerimeter=0;startArrow=classic;startFill=1;" edge="1" parent="1" source="WaAChLCho1Wd7BCtM6X5-27" target="WaAChLCho1Wd7BCtM6X5-31">
          <mxGeometry relative="1" as="geometry" />
        </mxCell>
        <mxCell id="WaAChLCho1Wd7BCtM6X5-33" style="edgeStyle=orthogonalEdgeStyle;rounded=0;orthogonalLoop=1;jettySize=auto;html=1;exitX=0.75;exitY=1;exitDx=0;exitDy=0;startArrow=classic;startFill=1;" edge="1" parent="1" source="WaAChLCho1Wd7BCtM6X5-27" target="WaAChLCho1Wd7BCtM6X5-28">
          <mxGeometry relative="1" as="geometry" />
        </mxCell>
        <mxCell id="WaAChLCho1Wd7BCtM6X5-27" value="Repository" style="whiteSpace=wrap;html=1;rounded=1;" vertex="1" parent="1">
          <mxGeometry x="820" y="940" width="120" height="60" as="geometry" />
        </mxCell>
        <mxCell id="WaAChLCho1Wd7BCtM6X5-28" value="Services" style="whiteSpace=wrap;html=1;rounded=1;" vertex="1" parent="1">
          <mxGeometry x="920" y="1060" width="120" height="60" as="geometry" />
        </mxCell>
        <mxCell id="WaAChLCho1Wd7BCtM6X5-29" value="MVVM" style="text;html=1;strokeColor=none;fillColor=none;align=center;verticalAlign=middle;whiteSpace=wrap;rounded=0;" vertex="1" parent="1">
          <mxGeometry x="640" y="810" width="60" height="30" as="geometry" />
        </mxCell>
        <mxCell id="WaAChLCho1Wd7BCtM6X5-31" value="Storage" style="whiteSpace=wrap;html=1;rounded=1;" vertex="1" parent="1">
          <mxGeometry x="740" y="1060" width="120" height="60" as="geometry" />
        </mxCell>
        <mxCell id="WaAChLCho1Wd7BCtM6X5-34" style="edgeStyle=orthogonalEdgeStyle;rounded=0;orthogonalLoop=1;jettySize=auto;html=1;" edge="1" parent="1" source="WaAChLCho1Wd7BCtM6X5-35" target="WaAChLCho1Wd7BCtM6X5-37">
          <mxGeometry relative="1" as="geometry" />
        </mxCell>
        <mxCell id="WaAChLCho1Wd7BCtM6X5-35" value="View" style="rounded=1;whiteSpace=wrap;html=1;" vertex="1" parent="1">
          <mxGeometry x="840" y="165" width="120" height="60" as="geometry" />
        </mxCell>
        <mxCell id="WaAChLCho1Wd7BCtM6X5-36" style="edgeStyle=orthogonalEdgeStyle;rounded=0;orthogonalLoop=1;jettySize=auto;html=1;exitX=0.5;exitY=1;exitDx=0;exitDy=0;entryX=0.5;entryY=0;entryDx=0;entryDy=0;startArrow=classic;startFill=1;" edge="1" parent="1" source="WaAChLCho1Wd7BCtM6X5-37" target="WaAChLCho1Wd7BCtM6X5-40">
          <mxGeometry relative="1" as="geometry">
            <mxPoint x="899.8461538461538" y="345" as="targetPoint" />
          </mxGeometry>
        </mxCell>
        <mxCell id="WaAChLCho1Wd7BCtM6X5-37" value="Controller" style="rounded=1;whiteSpace=wrap;html=1;" vertex="1" parent="1">
          <mxGeometry x="840" y="275" width="120" height="60" as="geometry" />
        </mxCell>
        <mxCell id="WaAChLCho1Wd7BCtM6X5-38" style="edgeStyle=orthogonalEdgeStyle;rounded=0;orthogonalLoop=1;jettySize=auto;html=1;exitX=0.31;exitY=1.004;exitDx=0;exitDy=0;exitPerimeter=0;startArrow=classic;startFill=1;" edge="1" parent="1" source="WaAChLCho1Wd7BCtM6X5-40" target="WaAChLCho1Wd7BCtM6X5-43">
          <mxGeometry relative="1" as="geometry" />
        </mxCell>
        <mxCell id="WaAChLCho1Wd7BCtM6X5-39" style="edgeStyle=orthogonalEdgeStyle;rounded=0;orthogonalLoop=1;jettySize=auto;html=1;exitX=0.75;exitY=1;exitDx=0;exitDy=0;startArrow=classic;startFill=1;" edge="1" parent="1" source="WaAChLCho1Wd7BCtM6X5-40" target="WaAChLCho1Wd7BCtM6X5-41">
          <mxGeometry relative="1" as="geometry" />
        </mxCell>
        <mxCell id="WaAChLCho1Wd7BCtM6X5-44" style="edgeStyle=orthogonalEdgeStyle;rounded=0;orthogonalLoop=1;jettySize=auto;html=1;entryX=1;entryY=0.5;entryDx=0;entryDy=0;exitX=1;exitY=0.75;exitDx=0;exitDy=0;" edge="1" parent="1" source="WaAChLCho1Wd7BCtM6X5-40" target="WaAChLCho1Wd7BCtM6X5-35">
          <mxGeometry relative="1" as="geometry" />
        </mxCell>
        <mxCell id="WaAChLCho1Wd7BCtM6X5-40" value="Repository" style="whiteSpace=wrap;html=1;rounded=1;" vertex="1" parent="1">
          <mxGeometry x="840" y="405" width="120" height="60" as="geometry" />
        </mxCell>
        <mxCell id="WaAChLCho1Wd7BCtM6X5-41" value="Services" style="whiteSpace=wrap;html=1;rounded=1;" vertex="1" parent="1">
          <mxGeometry x="940" y="525" width="120" height="60" as="geometry" />
        </mxCell>
        <mxCell id="WaAChLCho1Wd7BCtM6X5-43" value="Storage" style="whiteSpace=wrap;html=1;rounded=1;" vertex="1" parent="1">
          <mxGeometry x="760" y="525" width="120" height="60" as="geometry" />
        </mxCell>
        <mxCell id="WaAChLCho1Wd7BCtM6X5-58" style="edgeStyle=orthogonalEdgeStyle;rounded=0;orthogonalLoop=1;jettySize=auto;html=1;" edge="1" parent="1" source="WaAChLCho1Wd7BCtM6X5-46" target="WaAChLCho1Wd7BCtM6X5-54">
          <mxGeometry relative="1" as="geometry">
            <Array as="points">
              <mxPoint x="570" y="1440" />
              <mxPoint x="490" y="1440" />
            </Array>
          </mxGeometry>
        </mxCell>
        <mxCell id="WaAChLCho1Wd7BCtM6X5-46" value="View" style="rounded=1;whiteSpace=wrap;html=1;" vertex="1" parent="1">
          <mxGeometry x="534" y="1340" width="120" height="60" as="geometry" />
        </mxCell>
        <mxCell id="WaAChLCho1Wd7BCtM6X5-49" style="edgeStyle=orthogonalEdgeStyle;rounded=0;orthogonalLoop=1;jettySize=auto;html=1;exitX=0.31;exitY=1.004;exitDx=0;exitDy=0;exitPerimeter=0;startArrow=classic;startFill=1;" edge="1" parent="1" source="WaAChLCho1Wd7BCtM6X5-51" target="WaAChLCho1Wd7BCtM6X5-53">
          <mxGeometry relative="1" as="geometry" />
        </mxCell>
        <mxCell id="WaAChLCho1Wd7BCtM6X5-50" style="edgeStyle=orthogonalEdgeStyle;rounded=0;orthogonalLoop=1;jettySize=auto;html=1;exitX=0.75;exitY=1;exitDx=0;exitDy=0;startArrow=classic;startFill=1;" edge="1" parent="1" source="WaAChLCho1Wd7BCtM6X5-51" target="WaAChLCho1Wd7BCtM6X5-52">
          <mxGeometry relative="1" as="geometry" />
        </mxCell>
        <mxCell id="WaAChLCho1Wd7BCtM6X5-57" style="edgeStyle=orthogonalEdgeStyle;rounded=0;orthogonalLoop=1;jettySize=auto;html=1;exitX=0.75;exitY=0;exitDx=0;exitDy=0;entryX=0.5;entryY=1;entryDx=0;entryDy=0;" edge="1" parent="1" source="WaAChLCho1Wd7BCtM6X5-51" target="WaAChLCho1Wd7BCtM6X5-55">
          <mxGeometry relative="1" as="geometry" />
        </mxCell>
        <mxCell id="WaAChLCho1Wd7BCtM6X5-51" value="Repository" style="whiteSpace=wrap;html=1;rounded=1;" vertex="1" parent="1">
          <mxGeometry x="530" y="1640" width="120" height="60" as="geometry" />
        </mxCell>
        <mxCell id="WaAChLCho1Wd7BCtM6X5-52" value="Services" style="whiteSpace=wrap;html=1;rounded=1;" vertex="1" parent="1">
          <mxGeometry x="630" y="1760" width="120" height="60" as="geometry" />
        </mxCell>
        <mxCell id="WaAChLCho1Wd7BCtM6X5-53" value="Storage" style="whiteSpace=wrap;html=1;rounded=1;" vertex="1" parent="1">
          <mxGeometry x="450" y="1760" width="120" height="60" as="geometry" />
        </mxCell>
        <mxCell id="WaAChLCho1Wd7BCtM6X5-56" style="edgeStyle=orthogonalEdgeStyle;rounded=0;orthogonalLoop=1;jettySize=auto;html=1;entryX=0.25;entryY=0;entryDx=0;entryDy=0;" edge="1" parent="1" source="WaAChLCho1Wd7BCtM6X5-54" target="WaAChLCho1Wd7BCtM6X5-51">
          <mxGeometry relative="1" as="geometry" />
        </mxCell>
        <mxCell id="WaAChLCho1Wd7BCtM6X5-54" value="Command" style="rounded=1;whiteSpace=wrap;html=1;" vertex="1" parent="1">
          <mxGeometry x="430" y="1480" width="120" height="60" as="geometry" />
        </mxCell>
        <mxCell id="WaAChLCho1Wd7BCtM6X5-59" style="edgeStyle=orthogonalEdgeStyle;rounded=0;orthogonalLoop=1;jettySize=auto;html=1;entryX=0.75;entryY=1;entryDx=0;entryDy=0;" edge="1" parent="1" source="WaAChLCho1Wd7BCtM6X5-55" target="WaAChLCho1Wd7BCtM6X5-46">
          <mxGeometry relative="1" as="geometry" />
        </mxCell>
        <mxCell id="WaAChLCho1Wd7BCtM6X5-55" value="Querry" style="rounded=1;whiteSpace=wrap;html=1;" vertex="1" parent="1">
          <mxGeometry x="630" y="1480" width="120" height="60" as="geometry" />
        </mxCell>
        <mxCell id="WaAChLCho1Wd7BCtM6X5-60" value="&lt;h1&gt;MVC&lt;/h1&gt;&lt;p&gt;Lorem ipsum dolor sit amet, consectetur adipisicing elit, sed do eiusmod tempor incididunt ut labore et dolore magna aliqua.&lt;/p&gt;" style="text;html=1;strokeColor=none;fillColor=none;spacing=5;spacingTop=-20;whiteSpace=wrap;overflow=hidden;rounded=0;" vertex="1" parent="1">
          <mxGeometry x="620" y="320" width="190" height="120" as="geometry" />
        </mxCell>
        <mxCell id="WaAChLCho1Wd7BCtM6X5-61" value="&lt;h1&gt;MVVM&lt;/h1&gt;&lt;p&gt;- The ViewModel (controller) hold data consumed by the view In the bloc pattern it&#39;s the bloc&lt;br&gt;- The ViewModel could be shared between multiple views. However it needs a way to update view (ChangeNotifier + watch it or bloc with cubit)&lt;br&gt;-&amp;nbsp;&lt;br&gt;&lt;br&gt;&lt;/p&gt;" style="text;html=1;strokeColor=none;fillColor=none;spacing=5;spacingTop=-20;whiteSpace=wrap;overflow=hidden;rounded=0;" vertex="1" parent="1">
          <mxGeometry x="1051" y="750" width="319" height="240" as="geometry" />
        </mxCell>
        <mxCell id="WaAChLCho1Wd7BCtM6X5-62" value="&lt;h1&gt;Heading&lt;/h1&gt;&lt;p&gt;In this architecture the ViewModel is separated in command and queries. Those object are instatiated by the view on demand&lt;br&gt;Multiple quetry/command co-exist without interferring.&lt;br&gt;The data is shared at the model level&lt;/p&gt;" style="text;html=1;strokeColor=none;fillColor=none;spacing=5;spacingTop=-20;whiteSpace=wrap;overflow=hidden;rounded=0;" vertex="1" parent="1">
          <mxGeometry x="820" y="1410" width="350" height="120" as="geometry" />
        </mxCell>
        <mxCell id="WaAChLCho1Wd7BCtM6X5-65" style="edgeStyle=orthogonalEdgeStyle;rounded=0;orthogonalLoop=1;jettySize=auto;html=1;" edge="1" parent="1" source="WaAChLCho1Wd7BCtM6X5-63" target="WaAChLCho1Wd7BCtM6X5-64">
          <mxGeometry relative="1" as="geometry" />
        </mxCell>
        <mxCell id="WaAChLCho1Wd7BCtM6X5-63" value="RecordDetails page" style="rounded=1;whiteSpace=wrap;html=1;" vertex="1" parent="1">
          <mxGeometry x="2250" y="1015" width="120" height="60" as="geometry" />
        </mxCell>
        <mxCell id="WaAChLCho1Wd7BCtM6X5-67" style="edgeStyle=orthogonalEdgeStyle;rounded=0;orthogonalLoop=1;jettySize=auto;html=1;exitX=0.25;exitY=1;exitDx=0;exitDy=0;" edge="1" parent="1" source="WaAChLCho1Wd7BCtM6X5-64" target="WaAChLCho1Wd7BCtM6X5-66">
          <mxGeometry relative="1" as="geometry" />
        </mxCell>
        <mxCell id="WaAChLCho1Wd7BCtM6X5-70" style="edgeStyle=orthogonalEdgeStyle;rounded=0;orthogonalLoop=1;jettySize=auto;html=1;exitX=0.75;exitY=1;exitDx=0;exitDy=0;entryX=0.5;entryY=0;entryDx=0;entryDy=0;" edge="1" parent="1" source="WaAChLCho1Wd7BCtM6X5-64" target="WaAChLCho1Wd7BCtM6X5-69">
          <mxGeometry relative="1" as="geometry" />
        </mxCell>
        <mxCell id="WaAChLCho1Wd7BCtM6X5-64" value="Some widget ..." style="shape=process;whiteSpace=wrap;html=1;backgroundOutline=1;" vertex="1" parent="1">
          <mxGeometry x="2250" y="1155" width="120" height="60" as="geometry" />
        </mxCell>
        <mxCell id="WaAChLCho1Wd7BCtM6X5-66" value="Detail Consumer 1" style="rounded=1;whiteSpace=wrap;html=1;" vertex="1" parent="1">
          <mxGeometry x="2170" y="1325" width="120" height="60" as="geometry" />
        </mxCell>
        <mxCell id="WaAChLCho1Wd7BCtM6X5-69" value="Consumer 2" style="rounded=1;whiteSpace=wrap;html=1;" vertex="1" parent="1">
          <mxGeometry x="2320" y="1325" width="120" height="60" as="geometry" />
        </mxCell>
        <mxCell id="WaAChLCho1Wd7BCtM6X5-72" style="edgeStyle=orthogonalEdgeStyle;rounded=0;orthogonalLoop=1;jettySize=auto;html=1;" edge="1" parent="1" source="WaAChLCho1Wd7BCtM6X5-71" target="WaAChLCho1Wd7BCtM6X5-63">
          <mxGeometry relative="1" as="geometry" />
        </mxCell>
        <mxCell id="WaAChLCho1Wd7BCtM6X5-73" style="edgeStyle=orthogonalEdgeStyle;rounded=0;orthogonalLoop=1;jettySize=auto;html=1;entryX=0;entryY=0.5;entryDx=0;entryDy=0;exitX=0.5;exitY=1;exitDx=0;exitDy=0;dashed=1;" edge="1" parent="1" source="WaAChLCho1Wd7BCtM6X5-71" target="WaAChLCho1Wd7BCtM6X5-66">
          <mxGeometry relative="1" as="geometry" />
        </mxCell>
        <mxCell id="WaAChLCho1Wd7BCtM6X5-74" style="edgeStyle=orthogonalEdgeStyle;rounded=0;orthogonalLoop=1;jettySize=auto;html=1;exitX=0.625;exitY=1;exitDx=0;exitDy=0;entryX=0;entryY=0.25;entryDx=0;entryDy=0;dashed=1;" edge="1" parent="1" source="WaAChLCho1Wd7BCtM6X5-71" target="WaAChLCho1Wd7BCtM6X5-69">
          <mxGeometry relative="1" as="geometry" />
        </mxCell>
        <mxCell id="WaAChLCho1Wd7BCtM6X5-71" value="BlocProvider" style="shape=hexagon;perimeter=hexagonPerimeter2;whiteSpace=wrap;html=1;fixedSize=1;" vertex="1" parent="1">
          <mxGeometry x="2040" y="1005" width="120" height="80" as="geometry" />
        </mxCell>
        <mxCell id="WaAChLCho1Wd7BCtM6X5-76" style="edgeStyle=orthogonalEdgeStyle;rounded=0;orthogonalLoop=1;jettySize=auto;html=1;exitX=1;exitY=0.5;exitDx=0;exitDy=0;" edge="1" parent="1" source="WaAChLCho1Wd7BCtM6X5-75" target="WaAChLCho1Wd7BCtM6X5-71">
          <mxGeometry relative="1" as="geometry" />
        </mxCell>
        <mxCell id="WaAChLCho1Wd7BCtM6X5-75" value="Bloc" style="rounded=1;whiteSpace=wrap;html=1;" vertex="1" parent="1">
          <mxGeometry x="1820" y="1015" width="120" height="60" as="geometry" />
        </mxCell>
        <mxCell id="WaAChLCho1Wd7BCtM6X5-77" value="Tight to the view" style="text;html=1;strokeColor=none;fillColor=none;align=center;verticalAlign=middle;whiteSpace=wrap;rounded=0;" vertex="1" parent="1">
          <mxGeometry x="1854" y="970" width="60" height="30" as="geometry" />
        </mxCell>
        <mxCell id="WaAChLCho1Wd7BCtM6X5-79" style="edgeStyle=orthogonalEdgeStyle;rounded=0;orthogonalLoop=1;jettySize=auto;html=1;exitX=1;exitY=0.5;exitDx=0;exitDy=0;entryX=0;entryY=0.5;entryDx=0;entryDy=0;" edge="1" parent="1" source="WaAChLCho1Wd7BCtM6X5-78" target="WaAChLCho1Wd7BCtM6X5-75">
          <mxGeometry relative="1" as="geometry" />
        </mxCell>
        <mxCell id="WaAChLCho1Wd7BCtM6X5-82" style="edgeStyle=orthogonalEdgeStyle;rounded=0;orthogonalLoop=1;jettySize=auto;html=1;exitX=1;exitY=0.25;exitDx=0;exitDy=0;entryX=0;entryY=0.5;entryDx=0;entryDy=0;" edge="1" parent="1" source="WaAChLCho1Wd7BCtM6X5-78" target="WaAChLCho1Wd7BCtM6X5-80">
          <mxGeometry relative="1" as="geometry" />
        </mxCell>
        <mxCell id="WaAChLCho1Wd7BCtM6X5-78" value="Record Repository" style="rounded=1;whiteSpace=wrap;html=1;" vertex="1" parent="1">
          <mxGeometry x="1580" y="1015" width="130" height="60" as="geometry" />
        </mxCell>
        <mxCell id="WaAChLCho1Wd7BCtM6X5-80" value="Bloc 2" style="rounded=1;whiteSpace=wrap;html=1;" vertex="1" parent="1">
          <mxGeometry x="1820" y="870" width="120" height="60" as="geometry" />
        </mxCell>
        <mxCell id="WaAChLCho1Wd7BCtM6X5-83" value="&lt;h1&gt;Loaded Object Scenario&lt;/h1&gt;&lt;p&gt;Let&#39;s consider the following scenario: An object is available in a subsetted version in the app.&lt;br&gt;An API call let&#39;s us retrieve more details about it, ex blog post then full blog post&lt;/p&gt;" style="text;html=1;strokeColor=none;fillColor=none;spacing=5;spacingTop=-20;whiteSpace=wrap;overflow=hidden;rounded=0;" vertex="1" parent="1">
          <mxGeometry x="1800" y="560" width="190" height="200" as="geometry" />
        </mxCell>
        <mxCell id="WaAChLCho1Wd7BCtM6X5-84" value="Stream&amp;lt;BlogPost&amp;gt; blogPostList&lt;br&gt;setBlogPost(detail)&lt;br&gt;getFullBlogPost(detail)" style="text;html=1;strokeColor=none;fillColor=none;align=center;verticalAlign=middle;whiteSpace=wrap;rounded=0;" vertex="1" parent="1">
          <mxGeometry x="1535" y="1079" width="220" height="90" as="geometry" />
        </mxCell>
        <mxCell id="WaAChLCho1Wd7BCtM6X5-85" value="To get a reactive full blog post, we need to provide a method like watchFullBlogPost(ID) with a stream controller that trigger event each time updateBlogPost is called + a filter to send update only when correct bloc post is concerned" style="text;html=1;strokeColor=none;fillColor=none;align=center;verticalAlign=middle;whiteSpace=wrap;rounded=0;" vertex="1" parent="1">
          <mxGeometry x="1535" y="1150" width="220" height="190" as="geometry" />
        </mxCell>
        <mxCell id="WaAChLCho1Wd7BCtM6X5-86" value="IN any pattern, the model will always provide reactive data. The query can act as a transformer but will not simplify the model tier" style="text;html=1;strokeColor=none;fillColor=none;align=center;verticalAlign=middle;whiteSpace=wrap;rounded=0;" vertex="1" parent="1">
          <mxGeometry x="1560" y="1320" width="170" height="100" as="geometry" />
        </mxCell>
        <mxCell id="WaAChLCho1Wd7BCtM6X5-87" value="In MVVM like pattern, view doesn&#39;t interact with model.&lt;br&gt;In some case Controller will be only boilerplate" style="text;html=1;strokeColor=none;fillColor=none;align=center;verticalAlign=middle;whiteSpace=wrap;rounded=0;" vertex="1" parent="1">
          <mxGeometry x="1560" y="1450" width="170" height="100" as="geometry" />
        </mxCell>
        <mxCell id="WaAChLCho1Wd7BCtM6X5-94" value="The command / query model decouple the view from controllers&lt;br&gt;They are tight to the view like bloc&lt;br&gt;" style="text;html=1;strokeColor=none;fillColor=none;align=center;verticalAlign=middle;whiteSpace=wrap;rounded=0;" vertex="1" parent="1">
          <mxGeometry x="1900" y="1470" width="200" height="100" as="geometry" />
        </mxCell>
      </root>
    </mxGraphModel>
  </diagram>
</mxfile>
